<svg width="130" height="178" viewBox="0 0 130 178" fill="none" xmlns="http://www.w3.org/2000/svg">
<path d="M6 56L56.5 5.50004C66.1 -4.09996 81.1667 2.50004 87.5 7.00004C103.5 23 94.5 37.6667 89 43.5C78.1667 55.1667 54.2 80.4 45 88C35.8 95.6 38.1667 109.833 40.5 116C33 112 15.6 100.8 6 88C-3.6 75.2 2 61.3334 6 56Z" fill="white"/>
<path d="M123.303 117.454L69.032 171.703C58.715 182.016 42.5231 174.926 35.7168 170.092C18.5219 152.904 28.194 137.149 34.1048 130.882C45.7472 118.349 71.5037 91.2429 81.3908 83.0787C91.2779 74.9145 88.7345 59.6245 86.2269 53C94.287 57.297 112.987 69.3284 123.303 83.0787C133.62 96.8289 127.602 111.725 123.303 117.454Z" fill="white"/>
<path d="M6 56L56.5 5.50004C66.1 -4.09996 81.1667 2.50004 87.5 7.00004C103.5 23 94.5 37.6667 89 43.5C78.1667 55.1667 54.2 80.4 45 88C35.8 95.6 38.1667 109.833 40.5 116C33 112 15.6 100.8 6 88C-3.6 75.2 2 61.3334 6 56Z" stroke="white"/>
<path d="M123.303 117.454L69.032 171.703C58.715 182.016 42.5231 174.926 35.7168 170.092C18.5219 152.904 28.194 137.149 34.1048 130.882C45.7472 118.349 71.5037 91.2429 81.3908 83.0787C91.2779 74.9145 88.7345 59.6245 86.2269 53C94.287 57.297 112.987 69.3284 123.303 83.0787C133.62 96.8289 127.602 111.725 123.303 117.454Z" stroke="white"/>
</svg>
